<svg xmlns="http://www.w3.org/2000/svg" width="256" height="256" viewBox="0 0 100 100"><rect width="100" height="100" rx="20" fill="#2a1680"></rect><path d="M41.63 21.52Q43.25 21.61 51.26 22.41Q59.27 23.23 62.33 23.23Q65.39 23.23 66.47 22.87L66.47 22.87Q70.25 19.09 72.59 17.20L72.59 17.20L73.58 17.73Q69.44 23.05 68.45 30.06L68.45 30.06L66.38 29.44Q60.98 28.09 53.51 27.45L53.51 27.45Q51.26 42.66 51.26 59.77Q51.26 76.86 52.25 81.45L52.25 81.45Q47.21 81.72 43.07 82.80L43.07 82.80L42.53 82.36Q43.97 75.88 44.83 63.27Q45.68 50.67 45.68 41.95Q45.68 33.22 45.14 27.01L45.14 27.01Q44.60 27.01 44.15 27.01L44.15 27.01Q36.05 27.01 33.17 29.88L33.17 29.88Q32.54 31.15 32.54 33.84Q32.54 36.55 33.44 37.53L33.44 37.53L33.35 38.16Q31.10 39.52 28.85 41.95L28.85 41.95Q27.77 41.85 27.10 41.05Q26.42 40.23 26.42 39.16L26.42 39.16Q26.42 34.02 31.24 28.80Q36.05 23.59 41.63 21.52L41.63 21.52Z" fill="#ffffff"></path></svg>